<svg xmlns="http://www.w3.org/2000/svg" viewBox="0 0 431 431"><svg xmlns="http://www.w3.org/2000/svg" width="431" height="431" viewBox="0 0 33 33" shape-rendering="crispEdges" x="0" y="0"><path fill="#ffffff" d="M0 0h33v33H0z"/><path stroke="#000000" d="M0 0.5h7m2 0h1m1 0h1m1 0h4m1 0h2m2 0h1m1 0h1m1 0h7M0 1.5h1m5 0h1m2 0h1m1 0h2m2 0h1m3 0h2m1 0h1m1 0h1m1 0h1m5 0h1M0 2.5h1m1 0h3m1 0h1m1 0h2m3 0h3m1 0h1m1 0h1m1 0h4m1 0h1m1 0h3m1 0h1M0 3.5h1m1 0h3m1 0h1m1 0h3m2 0h3m4 0h5m1 0h1m1 0h3m1 0h1M0 4.5h1m1 0h3m1 0h1m3 0h1m1 0h1m2 0h2m4 0h1m1 0h1m2 0h1m1 0h3m1 0h1M0 5.5h1m5 0h1m3 0h5m2 0h2m5 0h1m1 0h1m5 0h1M0 6.5h7m1 0h1m1 0h1m1 0h1m1 0h1m1 0h1m1 0h1m1 0h1m1 0h1m1 0h1m1 0h7M9 7.5h3m1 0h3m1 0h1m2 0h1m1 0h2M3 8.5h2m1 0h2m5 0h1m2 0h2m2 0h1m2 0h2m4 0h2M2 9.5h2m1 0h1m2 0h3m1 0h1m5 0h1m1 0h1m1 0h2m1 0h1m1 0h3M0 10.5h2m3 0h2m1 0h1m1 0h1m1 0h3m1 0h1m2 0h1m1 0h1m1 0h1m3 0h1m3 0h2M2 11.5h4m1 0h3m2 0h3m1 0h2m1 0h1m5 0h1m1 0h2m1 0h1M0 12.5h1m1 0h1m1 0h1m1 0h3m2 0h2m1 0h1m1 0h1m1 0h7m1 0h1m2 0h1m2 0h1M0 13.5h1m1 0h2m1 0h1m4 0h1m1 0h1m1 0h3m1 0h1m2 0h3m3 0h1m2 0h2M2 14.5h2m2 0h2m2 0h1m3 0h3m1 0h3m3 0h3m2 0h2M1 15.5h5m2 0h1m2 0h1m1 0h1m1 0h1m1 0h1m1 0h1m3 0h5m1 0h3M0 16.5h1m1 0h5m1 0h1m2 0h2m1 0h1m2 0h1m1 0h2m2 0h1m1 0h5m1 0h1M3 17.5h1m1 0h1m1 0h1m2 0h3m1 0h2m3 0h4m1 0h1m1 0h4m2 0h1M0 18.5h2m1 0h4m3 0h1m1 0h4m1 0h3m3 0h1m1 0h2m2 0h2m1 0h1M0 19.5h1m3 0h2m1 0h1m3 0h3m3 0h2m4 0h3m1 0h4m1 0h1M3 20.5h2m1 0h1m3 0h1m1 0h4m1 0h1m2 0h1m3 0h1m4 0h1m1 0h2M0 21.5h2m1 0h3m3 0h1m2 0h1m2 0h1m1 0h1m3 0h2m1 0h1m2 0h2M0 22.5h1m5 0h1m1 0h1m2 0h1m1 0h1m2 0h1m1 0h2m2 0h2m2 0h3m1 0h3M0 23.5h1m1 0h1m4 0h2m3 0h1m2 0h3m4 0h2m3 0h1m2 0h3M0 24.5h3m1 0h3m1 0h1m4 0h1m1 0h3m2 0h1m3 0h6m1 0h2M8 25.5h4m2 0h1m5 0h2m2 0h1m3 0h2M0 26.5h7m1 0h1m1 0h5m1 0h1m1 0h2m3 0h2m1 0h1m1 0h3M0 27.5h1m5 0h1m2 0h1m7 0h3m1 0h4m3 0h1m1 0h2M0 28.5h1m1 0h3m1 0h1m1 0h1m5 0h2m3 0h1m1 0h9m1 0h1M0 29.5h1m1 0h3m1 0h1m1 0h2m2 0h7m1 0h4m1 0h1m1 0h1m2 0h2M0 30.5h1m1 0h3m1 0h1m4 0h1m1 0h1m1 0h1m2 0h2m1 0h2m5 0h2m1 0h2M0 31.5h1m5 0h1m4 0h1m3 0h1m1 0h7m2 0h1m2 0h4M0 32.5h7m4 0h4m1 0h2m2 0h1m1 0h3m3 0h1"/></svg><svg xmlns="http://www.w3.org/2000/svg" width="150.85" height="150.85" viewBox="0 0 400 400" fill="none" x="140.075" y="140.075">
<rect width="400" height="400" fill="white"/>
<path d="M263.713 133.416C264.045 133.712 264.377 134.008 264.719 134.313C267.753 138.16 267.523 142.299 267.593 147.003C267.61 147.773 267.628 148.542 267.646 149.311C267.691 151.299 267.727 153.287 267.76 155.275C267.778 156.378 267.799 157.481 267.821 158.584C267.913 163.16 267.986 167.735 268.051 172.311C268.073 173.866 268.096 175.421 268.119 176.976C268.174 180.672 268.227 184.368 268.279 188.064C268.326 191.372 268.374 194.681 268.425 197.989C268.575 207.923 268.71 217.857 268.817 227.792C268.841 230.025 268.868 232.258 268.896 234.491C268.945 238.291 268.982 242.09 269.006 245.89C269.015 247.141 269.028 248.393 269.046 249.645C269.068 251.351 269.077 253.056 269.082 254.763C269.096 255.5 269.096 255.5 269.111 256.253C269.099 259.952 268.252 262.907 265.624 265.602C262.307 267.762 259.315 268.761 255.345 268.054C252.26 267.095 250.185 265.067 247.887 262.882C247.356 262.396 246.823 261.912 246.289 261.429C242.999 258.439 239.809 255.371 236.686 252.208C235.289 250.8 233.876 249.446 232.363 248.165C229.895 246.068 227.66 243.743 225.384 241.443C223.445 239.492 221.469 237.633 219.368 235.856C217.121 233.865 215.044 231.69 212.942 229.549C210.802 230.411 209.364 231.905 207.774 233.519C207.344 233.949 207.344 233.949 206.906 234.387C206.301 234.994 205.696 235.602 205.094 236.212C204.184 237.132 203.269 238.047 202.354 238.962C198.832 242.486 198.832 242.486 195.501 246.188C192.625 249.554 189.402 252.608 186.263 255.725C185.603 256.382 184.944 257.039 184.284 257.696C182.806 259.169 181.326 260.64 179.846 262.111C179.09 262.864 178.337 263.62 177.583 264.377C171.824 270.106 164.877 272.624 156.862 272.727C148.501 272.674 141.103 269.879 134.983 264.039C129.197 257.788 126.012 249.772 126.255 241.224C127.138 231.324 131.356 224.511 138.213 217.722C139.065 216.869 139.917 216.017 140.769 215.164C142.106 213.826 143.444 212.49 144.792 211.162C146.647 209.328 148.466 207.499 150.154 205.51C151.906 203.469 153.786 201.578 155.696 199.686C156.013 199.373 156.329 199.059 156.655 198.736C157.978 197.428 159.303 196.122 160.63 194.818C161.609 193.856 162.584 192.89 163.559 191.924C163.859 191.632 164.159 191.339 164.468 191.037C165.874 189.64 167.054 188.404 167.782 186.54C164.195 182.863 164.195 182.863 160.39 179.416C158.261 177.599 156.309 175.625 154.341 173.637C151.468 170.726 151.468 170.726 148.428 167.992C145.979 165.923 143.77 163.616 141.517 161.34C139.552 159.362 137.546 157.477 135.422 155.669C131.538 152.28 128.36 149.299 127.83 144.001C128.105 140.588 129.087 137.223 131.761 134.928C134.3 133.236 135.912 132.631 138.995 132.456C139.345 132.436 139.696 132.416 140.057 132.395C144.945 132.139 149.84 132.085 154.734 132.014C155.833 131.996 156.933 131.979 158.032 131.961C160.994 131.913 163.957 131.869 166.919 131.825C168.773 131.797 170.627 131.769 172.481 131.741C178.957 131.642 185.432 131.546 191.908 131.451C197.934 131.364 203.959 131.27 209.984 131.174C215.171 131.091 220.357 131.013 225.544 130.938C228.636 130.894 231.729 130.847 234.82 130.796C237.725 130.748 240.63 130.706 243.535 130.667C244.599 130.653 245.662 130.636 246.725 130.617C260.476 130.374 260.476 130.374 263.713 133.416Z" fill="#000000"/>
<path d="M100.58 148.906C100.934 148.906 101.289 148.906 101.655 148.906C101.871 149.813 101.871 149.813 102.092 150.739C104.38 159.89 107.821 166.41 114.558 173.099C115.32 173.866 116.083 174.634 116.846 175.402C120.19 178.77 123.552 182.121 126.923 185.464C126.177 187.151 125.313 188.272 123.993 189.555C123.626 189.917 123.258 190.278 122.879 190.651C122.495 191.024 122.111 191.397 121.715 191.781C119.132 194.299 116.656 196.847 114.305 199.583C113.333 200.687 112.283 201.676 111.198 202.668C100.213 213.596 94.6619 229.469 94.4977 244.737C94.5553 260.864 100.932 276.058 111.989 287.78C124.29 299.683 139.963 305.665 156.98 305.58C171.011 305.241 184.649 300.153 195.201 290.838C195.659 290.444 196.117 290.05 196.589 289.645C198.62 287.866 200.526 286.082 202.286 284.033C204.62 281.33 207.146 278.833 209.683 276.322C210.153 275.854 210.623 275.386 211.108 274.904C212.255 273.763 213.405 272.622 214.555 271.483C216.062 272.169 217.144 272.87 218.293 274.06C218.579 274.353 218.866 274.645 219.161 274.947C219.46 275.257 219.758 275.566 220.065 275.885C222.322 278.187 224.594 280.406 227.061 282.485C228.013 283.326 228.85 284.224 229.709 285.159C235.844 291.363 244.369 294.156 252.726 295.676C251.867 297.822 250.362 299.243 248.738 300.825C248.45 301.111 248.162 301.396 247.865 301.689C246.946 302.6 246.022 303.506 245.098 304.412C240.023 309.38 240.023 309.38 235.251 314.635C231.168 319.368 226.495 323.598 221.544 327.396C221.252 327.624 220.96 327.853 220.659 328.088C215.35 332.226 209.781 335.603 203.802 338.686C203.462 338.863 203.121 339.04 202.77 339.223C177.82 352.043 147.987 352.947 121.551 344.467C102.55 338.026 85.5976 325.867 73.1609 310.192C72.7403 309.685 72.3196 309.179 71.8862 308.657C58.9615 292.671 50.659 270.755 50.4528 250.146C50.4449 249.492 50.4449 249.492 50.4369 248.824C50.3445 239.177 50.4092 229.834 52.7314 220.409C52.8523 219.916 52.9733 219.423 53.0979 218.915C57.6218 201.012 66.2292 185.179 78.8638 171.766C79.6653 170.89 80.4282 169.988 81.1958 169.083C84.2723 165.549 87.6742 162.313 91.0032 159.02C92.3565 157.681 93.708 156.34 95.0584 154.998C95.3648 154.696 95.6712 154.394 95.9868 154.083C97.302 152.776 98.5016 151.501 99.6477 150.037C99.9552 149.664 100.263 149.29 100.58 148.906Z" fill="#000000"/>
<path d="M311.825 72.7769C333.644 92.0922 347.161 117.601 349.363 146.856C349.418 148.077 349.464 149.298 349.497 150.519C349.519 151.049 349.54 151.579 349.562 152.126C350.125 177.645 341.057 203.35 324.229 222.56C323.863 222.985 323.497 223.41 323.12 223.847C320.417 226.923 317.55 229.819 314.625 232.682C313.065 234.218 311.573 235.777 310.15 237.441C307.755 240.215 305.158 242.787 302.563 245.371C301.705 246.227 300.849 247.085 299.994 247.944C299.45 248.488 298.905 249.032 298.36 249.576C297.869 250.066 297.378 250.557 296.872 251.062C295.735 252.129 295.735 252.129 295.198 252.129C295.056 245.534 294.916 238.939 294.777 232.344C294.713 229.28 294.648 226.216 294.582 223.153C294.518 220.186 294.455 217.22 294.394 214.253C294.37 213.132 294.346 212.01 294.322 210.888C294.254 207.769 294.195 204.65 294.148 201.53C294.13 200.466 294.11 199.402 294.086 198.338C294.051 196.718 294.027 195.098 294.005 193.478C293.986 192.745 293.986 192.745 293.966 191.996C293.935 188.526 294.632 186.441 296.808 183.671C304.625 173.279 306.13 157.181 304.608 144.735C302.587 131.242 296.401 120.043 287.133 110.197C286.844 109.873 286.554 109.549 286.256 109.215C276.198 98.3993 260.662 93.1456 246.253 92.3678C234.308 92.0601 220.451 94.8494 210.845 102.398C207.491 104.958 204.85 105.285 200.705 105.237C200.09 105.243 199.476 105.248 198.843 105.254C196.827 105.269 194.812 105.262 192.796 105.254C191.393 105.26 189.989 105.267 188.586 105.276C185.279 105.295 181.972 105.297 178.664 105.293C174.896 105.29 171.129 105.304 167.361 105.321C159.616 105.354 151.871 105.364 144.127 105.359C144.899 103.746 145.651 102.635 146.939 101.386C147.282 101.048 147.625 100.711 147.979 100.363C148.338 100.016 148.697 99.6684 149.066 99.3106C149.77 98.626 150.472 97.94 151.172 97.2526C151.639 96.8001 151.639 96.8001 152.116 96.3385C153.129 95.2868 154.085 94.2113 155.041 93.1079C156.903 90.9665 158.845 88.9237 160.839 86.9055C161.371 86.3667 161.371 86.3667 161.914 85.817C162.663 85.0613 163.412 84.3064 164.162 83.5523C164.91 82.7975 165.657 82.0403 166.4 81.2805C201.721 45.204 256.897 37.6733 311.825 72.7769Z" fill="#000000"/>
</svg></svg>