<svg xmlns="http://www.w3.org/2000/svg" viewBox="0 0 400 120" width="100%" height="100%">
  <defs>
    <filter id="shadow" x="-10%" y="-10%" width="120%" height="130%">
      <feDropShadow dx="0" dy="2" stdDeviation="3" flood-color="#000000" flood-opacity="0.15"></feDropShadow>
    </filter>
  </defs>

  <g filter="url(#shadow)">
    <!-- Cuerpo principal de la etiqueta -->
    <path d="M 10 10               H 390               A 6 6 0 0 1 396 16               V 74               A 6 6 0 0 1 390 80               H 220               L 200 102               L 180 80               H 10               A 6 6 0 0 1 4 74               V 16               A 6 6 0 0 1 10 10" fill="#000000" stroke="#d0cbca" stroke-width="1.5"></path>

    <!-- Borde rojo fino interno del diseño original -->
    <path d="M 15 15               H 385               A 3 3 0 0 1 388 18               V 70               A 3 3 0 0 1 385 73               H 216               L 200 90               L 184 73               H 15               A 3 3 0 0 1 12 70               V 18               A 3 3 0 0 1 15 15" fill="none" stroke="#b82621" stroke-width="1.5"></path>
  </g>

  <!-- Texto con tipografía, espaciado y color extraídos del cartel original -->
  <text x="200" y="49" font-family="'Helvetica Neue', Helvetica, Arial, sans-serif" font-size="20" font-weight="bold" letter-spacing="1.5" fill="#ffffff" text-anchor="middle">USTED SE ENCUENTRA AQUÍ</text>
</svg>
